{"title":"Cinderella 2015 720p HDTS NEW AUDIO x264 Pimp4003","uid":11776077,"size":1900063722,"categoryP":"video","categoryS":"movies","magnet":"?xt=urn:btih:9e345a4a03ddad3a98305199b55900c164b321bb&amp;dn=Cinderella+2015+720p+HDTS+NEW+AUDIO+x264+Pimp4003&amp;tr=udp%3A%2F%2Ftracker.openbittorrent.com%3A80&amp;tr=udp%3A%2F%2Fopen.demonii.com%3A1337&amp;tr=udp%3A%2F%2Ftracker.coppersurfer.tk%3A6969&amp;tr=udp%3A%2F%2Fexodus.desync.com%3A6969","seeders":23,"leechers":0,"uploader":"shawnmurthy","files":1,"time":1427298525,"description":"ENJOY FOR NOW UNTIL A BETTER SOURCE COMES THE CHINESE HDRIP SHOULD BE COMING SOON FOR THIS....ENJOY...PIMP4003\n\nSCREENSHOTS GO HERE...http://pimp4003DOTnet/torrents.php?id=9e345a4a03ddad3a98305199b55900c164b321bb\n\nI am looking for: Pre-Retail Supplier Unreleased DVD/BluRay/Web-Dls/R5/CAM/TS If you have something to offer, please contact ME: &lt;a class=&quot;__cf_email__&quot; href=&quot;/cdn-cgi/l/email-protection&quot; data-cfemail=&quot;b7c7dedac783878784f7dfc2c4dfdad6dedb99d4d8da99&quot;&gt;[email&amp;#160;protected]&lt;/a&gt;&lt;script cf-hash='f9e31' type=&quot;text/javascript&quot;&gt;\n/* &lt;![CDATA[ */!function(){try{var t=&quot;currentScript&quot;in document?document.currentScript:function(){for(var t=document.getElementsByTagName(&quot;script&quot;),e=t.length;e--;)if(t[e].getAttribute(&quot;cf-hash&quot;))return t[e]}();if(t&amp;&amp;t.previousSibling){var e,r,n,i,c=t.previousSibling,a=c.getAttribute(&quot;data-cfemail&quot;);if(a){for(e=&quot;&quot;,r=parseInt(a.substr(0,2),16),n=2;a.length-n;n+=2)i=parseInt(a.substr(n,2),16)^r,e+=String.fromCharCode(i);e=document.createTextNode(e),c.parentNode.replaceChild(e,c)}}}catch(u){}}();/* ]]&gt; */&lt;/script&gt; WE CAN WORK OUT A GREAT DEAL THAT WORKS OUT FOR EVERY PARTY. I ALSO NEED NEW CAMMERS...EMAIL ME\n &lt;a href=&quot;\nhttp://i.imgur.com/J3ny9bJ.jpg&quot; rel=&quot;nofollow&quot; target=&quot;_NEW&quot;&gt;\nhttp://i.imgur.com/J3ny9bJ.jpg&lt;/a&gt;\n &lt;a href=&quot;\nhttp://i.imgur.com/SpsuXOR.png&quot; rel=&quot;nofollow&quot; target=&quot;_NEW&quot;&gt;\nhttp://i.imgur.com/SpsuXOR.png&lt;/a&gt;\n\nPIMP THE ONE AND ONLY PIMPSTER.....PRESENTS\n\nfacebookDOTcom/OfficialPimp4003\n &lt;a href=&quot;\nhttp://i.imgur.com/gQmMmC4.jpg&quot; rel=&quot;nofollow&quot; target=&quot;_NEW&quot;&gt;\nhttp://i.imgur.com/gQmMmC4.jpg&lt;/a&gt;\n\nCinderella 2015 720p HDTS NEW AUDIO x264 Pimp4003\n &lt;a href=&quot;\nhttp://www.imdb.com/title/tt1661199/&quot; rel=&quot;nofollow&quot; target=&quot;_NEW&quot;&gt;\nhttp://www.imdb.com/title/tt1661199/&lt;/a&gt;\n\nWhen her father unexpectedly passes away, young Ella finds herself at the mercy of her cruel stepmother and her daughters. Never one to give up hope, Ella's fortunes begin to change after meeting a dashing stranger.\n\nDirector: Kenneth Branagh\n\nWriter: Chris Weitz (screenplay)\n\nStars: Lily James, Cate Blanchett, Richard Madden |See full cast and crew Â»\n\nVideo\n\nID : 1\n\nFormat : MPEG-4 Visual\n\nFormat profile : Simple@L3\n\nFormat settings, BVOP : No\n\nFormat settings, QPel : No\n\nFormat settings, GMC : No warppoints\n\nFormat settings, Matrix : Default (H.263)\n\nCodec ID : 20\n\nDuration : 1h 39mn\n\nBit rate : 2 407 Kbps\n\nWidth : 1 280 pixels\n\nHeight : 536 pixels\n\nDisplay aspect ratio : 2.40:1\n\nFrame rate mode : Variable\n\nFrame rate : 59.940 fps\n\nMinimum frame rate : 59.916 fps\n\nMaximum frame rate : 60.157 fps\n\nColor space : YUV\n\nChroma subsampling : 4:2:0\n\nBit depth : 8 bits\n\nScan type : Progressive\n\nCompression mode : Lossy\n\nBits/(Pixel*Frame) : 0.059\n\nStream size : 1.67 GiB (95%)\n\nWriting library : ZJMedia MPEG Encoder\n\nAudio\n\nID : 2\n\nFormat : AAC\n\nFormat/Info : Advanced Audio Codec\n\nFormat profile : LC\n\nCodec ID : 40\n\nDuration : 1h 39mn\n\nBit rate mode : Variable\n\nBit rate : 128 Kbps\n\nChannel(s) : 2 channels\n\nChannel positions : Front: L R\n\nSampling rate : 48.0 KHz\n\nCompression mode : Lossy\n\nStream size : 91.1 MiB (5%)","torrent":{"xt":"urn:btih:9e345a4a03ddad3a98305199b55900c164b321bb","amp;dn":"Cinderella+2015+720p+HDTS+NEW+AUDIO+x264+Pimp4003","amp;tr":["udp%3A%2F%2Ftracker.openbittorrent.com%3A80","udp%3A%2F%2Fopen.demonii.com%3A1337","udp%3A%2F%2Ftracker.coppersurfer.tk%3A6969","udp%3A%2F%2Fexodus.desync.com%3A6969"],"infoHash":"9e345a4a03ddad3a98305199b55900c164b321bb","infoHashBuffer":{"type":"Buffer","data":[158,52,90,74,3,221,173,58,152,48,81,153,181,89,0,193,100,179,33,187]},"announce":[],"urlList":[]}}